<svg xmlns="http://www.w3.org/2000/svg" style="display: none">

	<symbol id="double-chevron-right" viewbox="0 0 1024 1024">
		<path d="M452.864 149.312a29.12 29.12 0 0141.728.064L826.24 489.664a32 32 0 010 44.672L494.592 874.624a29.12 29.12 0 01-41.728 0 30.592 30.592 0 010-42.752L764.736 512 452.864 192a30.592 30.592 0 010-42.688zm-256 0a29.12 29.12 0 0141.728.064L570.24 489.664a32 32 0 010 44.672L238.592 874.624a29.12 29.12 0 01-41.728 0 30.592 30.592 0 010-42.752L508.736 512 196.864 192a30.592 30.592 0 010-42.688z"/>
	</symbol>

	<symbol id="arrow-right-rounded" viewBox="0 0 45.6 45.6">
		<path d="M44.275,19.739L30.211,5.675c-0.909-0.909-2.275-1.18-3.463-0.687c-1.188,0.493-1.959,1.654-1.956,2.938l0.015,5.903
		l-21.64,0.054C1.414,13.887-0.004,15.312,0,17.065l0.028,11.522c0.002,0.842,0.338,1.648,0.935,2.242s1.405,0.927,2.247,0.925
		l21.64-0.054l0.014,5.899c0.004,1.286,0.781,2.442,1.971,2.931c1.189,0.487,2.557,0.21,3.46-0.703L44.29,25.694
		C45.926,24.043,45.92,21.381,44.275,19.739z"/>
	</symbol>

	<symbol id="arrow-right" viewBox="0 0 32 32">
		<title>fat arrow right</title>
		<g>
			<path d="M0,12 h14 v-6.5 L32,16 14,28 v-6.5 h-14 z"/>
		</g>
		</symbol>

	<symbol id="arrow-right2" viewBox="0 2 32 28">
		<title>fat arrow right</title>
		<g>
			<path d="M0,12 L15,12 14,6 32,16 14,26 15,20 0,20 z"/>
		</g>
		</symbol>


	<symbol id="play" viewBox="0 0 32 32">
		<path d="M6,4 l20,12-20,12z"/>
		</symbol>

	<symbol id="next" viewBox="0 0 32 32">
		<path d="M3,4 l20,12-20,12 M24,4 l2,0 2,0 0,24 -4,0"/>
		</symbol>

	<symbol id="pause" viewBox="0 0 32 32">
		<path d="M4 4h10v24h-10zM18 4h10v24h-10z"/>
		</symbol>

	<symbol id="eye-show" viewBox="0 0 32 32">
		<title>eye show</title>
		<g>
			<path d="M0 16q.192-1.568 2.048-3.52Q4.576 9.92 7.68 8.352q4.128-1.92 8.32-1.92 4.384.064 8.32 1.92 3.296 1.696 5.632 4.128Q32 14.816 32 16q-.192 1.568-2.048 3.488-2.528 2.56-5.632 4.128-4.128 1.952-8.32 1.952-4.384-.064-8.32-1.952-3.296-1.696-5.632-4.128Q0 17.184 0 16zm8.448 0q0 3.008 2.208 5.088T16 23.168t5.344-2.08T23.552 16t-2.208-5.088T16 8.8t-5.344 2.112T8.448 16zm2.752-.032q0-1.92 1.408-3.264T16 11.36t3.392 1.344 1.408 3.264-1.408 3.264T16 20.608t-3.392-1.376-1.408-3.264z"/>
		</g>
		</symbol>

	<symbol id="eye-hide" viewBox="0 0 32 32">
		<title>eye hide</title>
		<g>
			<path d="M0 16.768q.192-1.568 2.048-3.52 2.528-2.56 5.632-4.096Q11.808 7.2 16 7.2q.928 0 1.888.064l2.368-4.128q.32-.512.736-.576.128 0 .256.064l1.632 1.024q.544.224.064 1.056L21.12 7.936l-1.504 2.528-1.312 2.304-4.608 8-1.312 2.304-1.504 2.56-1.824 3.2q-.48.8-.992.48l-1.696-.992q-.48-.256 0-1.056l1.568-2.752-.256-.128q-3.296-1.696-5.632-4.128Q0 17.952 0 16.768zm8.448 0q0 2.368 1.504 4.256l1.536-2.688q-.288-.768-.288-1.568 0-1.632 1.088-2.912t2.72-1.6l1.568-2.688H16q-3.136 0-5.344 2.112t-2.208 5.088zm5.664 9.44l1.312-2.272H16q3.136 0 5.344-2.08t2.208-5.088q0-2.368-1.504-4.256l2.016-3.488q.064.064.128.096t.128.032q3.296 1.664 5.632 4.096Q32 15.584 32 16.768q-.192 1.568-2.048 3.488-2.528 2.56-5.632 4.128-4.128 1.952-8.32 1.952-.8 0-1.888-.128zm2.88-4.96l3.52-6.048q.288.8.288 1.568 0 1.632-1.088 2.88t-2.72 1.6z"/>
		</g>
		</symbol>

	<symbol id="checkbox-unchecked" viewBox="0 0 30 32">
		<title>checkbox unchecked</title>
		<g>
			<path d="M20 4.576H5.152q-1.184 0-2.016.832t-.864 2.016v14.848q0 1.184.864 2.016t2.016.864H20q1.184 0 2.016-.864t.832-2.016V7.424q0-1.184-.832-2.016T20 4.576zm5.152 2.848v14.848q0 2.144-1.504 3.648T20 27.424H5.152q-2.144 0-3.648-1.504T0 22.272V7.424q0-2.112 1.504-3.616t3.648-1.536H20q2.112 0 3.648 1.536t1.504 3.616z"/>
		</g>
		</symbol>

	<symbol id="checkbox-checked" viewBox="0 0 30 32">
		<title>checkbox checked</title>
		<g>
			<path d="M25.152 16.608v5.664q0 2.144-1.504 3.648T20 27.424H5.152q-2.144 0-3.648-1.504T0 22.272V7.424q0-2.112 1.504-3.616t3.648-1.536H20q1.12 0 2.08.448.288.128.32.416.064.32-.16.512l-.864.896q-.192.16-.416.16-.032 0-.16-.032-.416-.096-.8-.096H5.152q-1.184 0-2.016.832t-.864 2.016v14.848q0 1.184.864 2.016t2.016.864H20q1.184 0 2.016-.864t.832-2.016V17.76q0-.256.16-.416l1.152-1.12q.192-.192.416-.192.096 0 .224.064.352.128.352.512zm4.128-8.736L14.72 22.4q-.416.448-.992.448t-1.024-.448l-7.68-7.68q-.448-.416-.448-.992t.448-1.024l1.952-1.984q.448-.416 1.024-.416t1.024.416l4.704 4.704L25.28 3.872q.416-.416.992-.416t1.024.416l1.984 1.952q.416.448.416 1.024t-.416 1.024z"/>
		</g>
		</symbol>

	<symbol id="checkmark" viewBox="0 0 30 32">
		<title>checkmark</title>
		<g>
			<path d="M11.584 24.704a2.965 2.965 0 0 1-.448-.448L10.912 24c-.128-.16-.256-.288-.352-.416-.16-.256-.32-.48-.48-.736l-.288-.416-.288-.448c-.16-.192-.288-.352-.448-.544l-.544-.736-.48-.576-.352-.416c-.192-.224-.384-.48-.576-.704-.16-.192-.352-.384-.544-.576-.128-.128-.256-.288-.416-.416l-.288-.192-.128-.096-.288-.128-.576-.128-.16-.032h-.832l-.576.096c-.16.032-.288.064-.448.096l-.128.064-.288.096c-.192.064-.384.16-.576.256l-.256.16-.16.096-.224.192-.224.256-.192.384-.032.16.032.288.096.256.192.288.096.16.256.288.224.288c.192.192.352.384.512.576.256.288.544.544.8.832.224.256.416.48.608.736l.608.704.48.576c.224.288.416.576.64.864l.352.416.416.576c.48.608.896 1.216 1.312 1.856l.768 1.152.352.576c.128.192.224.384.352.544l.224.256.096.128.256.192.288.16.128.032c.224.096.48.128.704.16.16.032.288.064.448.064l.288.032h.416c.192 0 .384 0 .576-.032.128 0 .288-.032.416-.064l.288-.032.288-.064.16-.064.256-.096.288-.128.224-.192.192-.224.16-.256.096-.16.032-.128.064-.128.032-.16.096-.288.064-.128.096-.288.16-.448c.096-.224.16-.48.256-.704s.192-.48.288-.704l.288-.736.32-.704.256-.704.384-.864.224-.576.256-.576.192-.416.128-.288.288-.576.512-1.152c.096-.224.192-.48.32-.704l.224-.416.128-.288.512-1.024.288-.544.512-1.024.384-.704c.16-.288.288-.576.448-.864.064-.128.128-.288.224-.416l.416-.704.64-1.152.224-.448c.16-.224.288-.48.448-.704l.256-.416.16-.288c.096-.192.192-.384.32-.576l.256-.416.192-.288.512-.864.352-.576.768-1.152.448-.704.96-1.44.288-.416.768-1.152.416-.576.192-.288.16-.288.16-.256.096-.288v-.416l-.032-.128-.16-.224-.192-.128-.128-.064-.16-.032h-.128l-.288-.032h-.992c-.192 0-.384.032-.576.032l-.576.096-.288.032c-.128 0-.288.032-.416.032-.32.064-.576.192-.864.32-.192.064-.384.128-.576.256-.16.064-.288.16-.416.288-.16.128-.288.256-.448.384l-.48.576c-.096.128-.192.288-.288.416l-.192.288-.48.704-.48.736-.288.416-.256.448-.416.704-.448.704-.32.576-.288.416-.256.448-.48.864-.352.576-.288.544-.224.448-.32.576-.288.544-.288.576-.384.736-.224.416-.256.576c-.096.192-.16.384-.256.576l-.32.576-.256.544c-.128.256-.256.48-.352.736l-.256.576c-.128.288-.256.544-.384.832l-.16.448-.192.416-.16.448-.256.544-.256.576c-.128.288-.224.576-.352.864l-.288.704-.288.736c-.096.224-.192.48-.288.704l-.128.416-.096.288-.064.128-.192.448z"/>
		</g>
		</symbol>

	<symbol id="crossmark" viewBox="0 0 24 32">
		<title>crossmark</title>
		<g>
			<path d="M12.256 9.984l-.192-.096-.16-.096-.16-.192-.16-.224-.192-.384-.352-.608-.224-.512-.256-.512-.192-.352-.288-.512-.096-.256-.128-.256-.128-.224-.384-.768-.32-.608-.224-.512-.256-.512-.064-.096-.256-.512-.192-.224-.192-.192-.096-.064-.256-.064H7.36a2.47 2.47 0 0 1-.48.064l-.384-.096-.128-.064h-.224l-.224.064-.096.064-.064.096-.192.192-.096.224-.064.16-.032.224-.384-.096h-.096l-.064-.032H4.64c-.096.128-.16.256-.224.384l-.064.096-.096.384-.032.256c0 .192-.032.416 0 .608.032.128.064.256.128.384.096.224.192.416.288.64l.192.352.512 1.024.224.48.416.768.288.608.448.896.192.352.32.64.256.48.288.512.32.64.288.48c.064.16.16.352.224.512l.192.384a.671.671 0 0 1 .128.352l-.032.256-.032.128-.128.256-.16.256-.192.224c-.192.352-.416.672-.64 1.024l-.416.608-.224.384-.256.384-.384.608-.288.512-.384.608c-.128.224-.256.416-.384.64l-.416.608-.224.384-.192.384-.128.256-.16.224c-.096.192-.192.352-.288.512-.128.16-.224.32-.32.512l-.352.608-.448.768-.192.352-.384.768-.288.48-.288.512-.32.64-.32.608-.32.64-.064.256-.032.096-.032.256.032.256.128.512.064.128.128.224c.128.192.288.352.448.544.064.096.128.16.192.256l.128.224.192-.032h.416l.256-.032.224-.064.128-.064.288-.192.064.192.032.064.128.16.16.128.224.032h.256l.128-.032.128-.064.224-.16.192-.192.32-.512c.096-.16.16-.32.256-.48l.448-.896.32-.608.384-.768.352-.608.448-.896.224-.352.416-.768.256-.48.192-.384c.16-.288.384-.576.544-.864.128-.224.224-.448.32-.64.064-.128.128-.256.224-.384l.224-.352.448-.768.384-.608.256-.384.288-.512.224-.352.064-.064.096-.192.192.16.128.128.128.224.192.352.16.256c.128.256.256.512.416.736l.224.384.128.256.256.384.16.224.288.512.448.736.288.512.32.512c.128.192.256.416.384.608l.288.512c.096.16.224.32.32.48l.192.256.16.256.224.224.128.064.128.096.224.064h.128l.256-.064.128-.064.224-.16.064-.032.224-.128.064.192.16.32.224-.096.064-.032.128-.096.192-.128.064-.032.224-.128.032-.192v-.192l.096-.352.256.096.096.064h.064l.192.064.064-.192.032-.064.032-.128.096-.224c.064-.256.192-.48.16-.768 0-.128-.064-.256-.096-.352l-.064-.128-.48-.768c-.16-.288-.352-.576-.512-.864s-.32-.576-.512-.864l-.48-.768-.288-.48-.448-.768-.288-.48-.16-.256c-.096-.16-.192-.352-.32-.512-.096-.16-.16-.32-.256-.48-.16-.256-.288-.512-.416-.768-.096-.16-.224-.32-.32-.512l-.256-.48c-.096-.224-.224-.416-.352-.64l-.224-.352-.128-.256-.064-.256c0-.128.032-.256.064-.384l.128-.256.16-.224c.096-.192.224-.352.352-.512l.288-.384c.16-.224.352-.48.512-.736l.352-.512.32-.48.544-.768.384-.48.352-.512.448-.64.48-.608.352-.512.448-.608.384-.512.48-.608c.192-.224.352-.416.512-.64l.448-.64.288-.352.48-.64c.16-.192.288-.384.384-.608l.064-.256v-.384l-.192-.448-.16-.16-.096-.064-.224-.064-.064-.224-.064-.16-.192-.192-.192-.16L21.376.8l-.128-.032-.256-.032-.096.032-.256.064c-.16.096-.352.192-.512.288L20 .896 19.904.8l-.192-.128-.224-.064-.224.032-.128.064-.256.192-.224.224c-.128.128-.224.256-.32.384-.256.288-.48.576-.704.864l-.448.64-.352.48-.608.768c-.16.224-.352.48-.512.736l-.48.64c-.128.192-.288.416-.416.608s-.256.352-.352.512l-.608.736c-.128.16-.224.352-.352.512l-.352.512-.16.224-.288.384-.16.256-.16.224-.128.384z"/>
		</g>
		</symbol>

	<symbol id="person" viewBox="0 0 32 32">
		<title>android person</title>
		<g>
			<path d="M16 16c3.296 0 6.016-2.688 6.016-6.016S19.296 4 16 4s-5.984 2.688-5.984 5.984S12.704 16 16 16zm0 3.008c-3.968 0-12 2.016-12 5.984V28h24v-3.008c0-3.968-8.032-5.984-12-5.984z"/>
		</g>
		</symbol>
	<symbol id="person-add" viewBox="0 0 24 24">
		<title>person add</title>
		<g>
			<path d="M13,8c0-2.21-1.79-4-4-4S5,5.79,5,8s1.79,4,4,4S13,10.21,13,8z M15,10v2h3v3h2v-3h3v-2h-3V7h-2v3H15z M1,18v2h16v-2 c0-2.66-5.33-4-8-4S1,15.34,1,18z"/>
		</g>
		</symbol>
	<symbol id="home" viewBox="0 0 32 32">
		<title>home</title>
		<g>
			<path d="M32 18.451L16 6.031 0 18.451v-5.064L16 .967l16 12.42zM28 18v12h-8v-8h-8v8H4V18l12-9z"/>
		</g>
		</symbol>

	<symbol id="navicon-round" viewBox="0 0 32 32">
		<title>navicon round</title>
		<g>
			<path d="M26.08 13.984H5.92C4.864 13.984 4 14.88 4 16s.864 1.984 1.92 1.984h20.16c1.056 0 1.92-.864 1.92-1.984s-.864-2.016-1.92-2.016zm0-8H5.92C4.864 5.984 4 6.88 4 8s.864 1.984 1.92 1.984h20.16C27.136 9.984 28 9.12 28 8s-.864-2.016-1.92-2.016zm0 16H5.92C4.864 21.984 4 22.88 4 24s.864 1.984 1.92 1.984h20.16c1.056 0 1.92-.864 1.92-1.984s-.864-2.016-1.92-2.016z"/>
		</g>
		</symbol>

	<symbol id="fullscreen-exit" viewBox="0 0 27 32">
		<title>fullscreen exit</title>
		<g>
			<path d="M3.52 17.664h8.16v8.32q0 .736-.384 1.216t-1.088.48-1.184-.512-.512-1.184v-2.848l-5.664 5.696q-.48.48-1.152.48-.736 0-1.216-.48T0 27.648t.48-1.184l5.472-5.472H3.52q-.672 0-1.152-.512t-.48-1.184.48-1.152 1.152-.48zm1.472-3.36q-.672 0-1.184-.48t-.48-1.152V5.984h6.688q.672 0 1.152.512t.512 1.184-.512 1.152-1.152.48H6.688v3.36q0 .672-.512 1.152t-1.184.48zm16.704 3.36q.672 0 1.152.48t.48 1.152v6.688h-6.656q-.672 0-1.184-.48t-.48-1.184.48-1.184 1.184-.48H20v-3.36q0-.672.512-1.152t1.184-.48zM23.84 3.136q.48-.48 1.152-.48t1.184.48.48 1.184-.48 1.184l-5.504 5.472h2.656q.672 0 1.184.512t.48 1.184-.48 1.152-1.184.48h-8.32v-8.32q0-.672.48-1.184t1.184-.48 1.184.48.48 1.184V8.64z"/>
		</g>
		</symbol>

	<symbol id="fullscreen-enter" viewBox="0 0 27 32">
		<title>fullscreen enter</title>
		<g>
			<path d="M18.336 2.656h8.352v8.32q0 .704-.512 1.184t-1.184.512-1.184-.512-.48-1.184V8.352l-5.472 5.472q-.48.48-1.184.48t-1.184-.48-.48-1.184.48-1.184l5.472-5.472h-2.624q-.704 0-1.184-.48t-.48-1.184.48-1.184 1.184-.48zM8.832 18.144q.48-.48 1.184-.48t1.152.48.48 1.184-.48 1.184l-5.472 5.472H8.32q.672 0 1.184.512t.512 1.184-.512 1.152-1.184.48H0v-8.32q0-.672.512-1.184t1.184-.512 1.152.512.48 1.184v2.624zM4.992 16q-.672 0-1.184-.512t-.48-1.184v-8.32h8.352q.672 0 1.152.512t.48 1.184-.48 1.152-1.152.48H6.688v4.992q0 .672-.512 1.184T4.992 16zm16.704 0q.672 0 1.152.48t.48 1.184v8.32h-8.32q-.672 0-1.184-.48t-.512-1.184.512-1.184 1.184-.48H20v-4.992q0-.672.512-1.184t1.184-.48z"/>
		</g>
		</symbol>

	<symbol id="trash" viewBox="0 0 32 32">
		<title>delete</title>
		<g>
			<path d="M8 25.344C8 26.784 9.216 28 10.656 28h10.688A2.67 2.67 0 0 0 24 25.344v-16H8v16zm3.296-9.504l1.856-1.888L16 16.8l2.816-2.848 1.888 1.888-2.816 2.816 2.816 2.848-1.888 1.856L16 20.544l-2.816 2.816-1.888-1.856 2.816-2.848-2.816-2.816zm9.376-10.496L19.328 4h-6.656l-1.344 1.344H6.656V8h18.688V5.344z"/>
		</g>
		</symbol>
	<!--// Those have a functional name rather than a descriptive one -->
	<symbol id="refresh" viewBox="0 0 27 32">
		<title>refresh</title>
		<g>
			<path d="M26.976 18.848v.128q-1.152 4.8-4.8 7.776t-8.544 2.976q-2.592 0-5.024-.992T4.256 25.92l-2.304 2.304q-.352.352-.8.352t-.8-.352-.352-.8v-8q0-.448.352-.8t.8-.352h8q.448 0 .8.352t.32.8-.32.8l-2.464 2.464q1.28 1.152 2.88 1.824t3.36.64q2.368 0 4.448-1.184t3.328-3.168q.192-.32.96-2.112.128-.416.512-.416H26.4q.256 0 .416.192t.16.384zm.448-14.272v8q0 .448-.32.8t-.832.352h-8q-.448 0-.8-.352t-.32-.8.32-.8l2.464-2.464q-2.624-2.464-6.208-2.464-2.4 0-4.48 1.184T5.92 11.2q-.192.32-.928 2.112-.16.416-.544.416H.896q-.224 0-.416-.192t-.16-.384v-.128q1.152-4.8 4.832-7.776t8.576-2.976q2.592 0 5.056.992t4.384 2.816l2.304-2.304q.352-.352.8-.352t.832.352.32.8z"/>
		</g>
		</symbol>

	<symbol id="reset" viewBox="0 0 27 32">
		<title>reset</title>
		<g>
			<path d="M27.424 16q0 2.784-1.088 5.312t-2.912 4.384-4.384 2.944-5.312 1.088q-3.072 0-5.856-1.312t-4.704-3.648q-.128-.192-.128-.416T3.2 24l2.432-2.464q.192-.16.48-.16t.384.224q1.312 1.696 3.2 2.624t4.032.928q1.856 0 3.52-.736t2.944-1.952 1.952-2.912.704-3.552-.704-3.552-1.952-2.912-2.944-1.952-3.488-.736-3.392.64-2.88 1.824l2.464 2.464q.544.512.256 1.216t-1.056.736h-8q-.48 0-.8-.352t-.352-.8v-8q0-.768.704-1.088t1.248.288L4.256 6.08q1.92-1.824 4.384-2.816t5.088-.992q2.784 0 5.312 1.088t4.384 2.944 2.912 4.384T27.424 16z"/>
		</g>
		</symbol>



	<symbol id="save" viewBox="0 0 27 32">
		<title>save</title>
		<g>
			<path d="M6.848 27.424h13.728v-6.848H6.848v6.848zm16 0h2.304v-16q0-.256-.192-.672t-.352-.64L19.584 5.12q-.16-.192-.608-.384t-.704-.16V12q0 .704-.48 1.216t-1.216.512H6.272q-.704 0-1.184-.512T4.576 12V4.576H2.272v22.848h2.304V20q0-.704.512-1.216t1.184-.512h14.88q.704 0 1.216.512t.48 1.216v7.424zM16 10.848V5.152q0-.256-.16-.416t-.416-.16H12q-.224 0-.416.16t-.16.416v5.696q0 .224.16.416t.416.16h3.424q.224 0 .416-.16t.16-.416zm11.424.576V28q0 .704-.48 1.216t-1.216.512h-24q-.736 0-1.216-.512T0 28V4q0-.704.512-1.216t1.216-.512h16.544q.736 0 1.6.384t1.344.832l4.992 5.024q.512.48.864 1.344t.352 1.568z"/>
		</g>
		</symbol>
	<symbol id="edit" viewBox="0 0 30 32">
		<title>pencil</title>
		<g stroke="none">
			<path d="M0 31.008l1.92-8.992L21.984 1.92q.672-.672 1.632-.672t1.6.64l3.872 3.904q.672.672.672 1.6t-.672 1.6L8.992 29.088zM2.176 28.8l6.208-1.408.768-.8-4.768-4.768-.768.768z"/>
		</g>
		</symbol>
	<!--//  //-->

	<symbol id="triangle" viewBox="0 0 38 32">
		<title>shape triangle</title>
		<g>
			<path d="M18.464 0l18.464 30.784H0z"/>
		</g>
		</symbol>

	<symbol id="circle" viewBox="0 0 32 32">
		<title>shape circle</title>
		<g>
			<path d="M0 15.392c0 8.501 6.891 15.392 15.392 15.392s15.392-6.891 15.392-15.392S23.893 0 15.392 0 0 6.891 0 15.392"/>
		</g>
		</symbol>

	<symbol id="square" viewBox="0 0 32 32">
		<title>shape square</title>
		<g>
			<path d="M0 0h30.784v30.784H0z"/>
		</g>
		</symbol>

	<symbol id="speech-bubble" viewBox="0 0 32 32">
		<title>speech bubble</title>
		<g>
			<path d="M32 16q0 3.104-2.144 5.728t-5.824 4.16T16 27.424q-1.248 0-2.592-.128-3.52 3.104-8.224 4.32-.864.256-2.016.384-.32.032-.544-.16t-.32-.512v-.032q-.064-.064 0-.192t.032-.192.064-.16l.128-.16.128-.16.128-.16q.128-.16.544-.608t.64-.704.544-.704.576-.896.48-1.056.48-1.344q-2.816-1.6-4.416-3.936T0 16q0-2.336 1.28-4.448t3.392-3.648 5.12-2.432T16 4.576q4.352 0 8.032 1.536t5.824 4.16T32 16z"/>
		</g>
		</symbol>

	<symbol id="speech-bubble-outline" viewBox="0 0 32 32">
		<title>speech bubble outline</title>
		<g>
			<path d="M16 6.848q-3.648 0-6.816 1.248t-5.024 3.36T2.272 16q0 1.984 1.28 3.808t3.616 3.136l1.536.896-.48 1.696q-.416 1.632-1.248 3.104 2.72-1.152 4.928-3.072l.768-.672 1.024.096q1.216.16 2.304.16 3.648 0 6.816-1.248t5.024-3.36T29.728 16t-1.888-4.544-5.024-3.36T16 6.848zM32 16q0 3.104-2.144 5.728t-5.824 4.16T16 27.424q-1.248 0-2.592-.128-3.52 3.104-8.224 4.32-.864.256-2.016.384h-.096q-.256 0-.48-.192t-.288-.48v-.032q-.064-.064 0-.192t.032-.192.064-.16l.128-.16.128-.16.128-.16q.128-.16.544-.608t.64-.704.544-.704.576-.896.48-1.056.48-1.344q-2.816-1.6-4.416-3.936T0 16q0-3.104 2.144-5.728t5.824-4.16T16 4.576t8.032 1.536 5.824 4.16T32 16z"/>
		</g>
		</symbol>

	<symbol id="trophy" viewBox="0 0 32 32">
		<title>trophy</title>
		<g>
			<path d="M26 6V2H6v4H0v4a6 6 0 0 0 7.801 5.725A10.006 10.006 0 0 0 14 19.8V26h-2a4 4 0 0 0-4 4h16a4 4 0 0 0-4-4h-2v-6.2a10.006 10.006 0 0 0 6.199-4.075A6 6 0 0 0 32 10V6h-6zM6 13.625A3.629 3.629 0 0 1 2.375 10V8H6v2c0 1.256.232 2.457.655 3.565-.213.039-.431.06-.655.06zM29.625 10a3.629 3.629 0 0 1-4.28 3.565A9.968 9.968 0 0 0 26 10V8h3.625v2z"/>
		</g>
	</symbol>

	<symbol id="star" viewBox="0 0 30 32">
		<title>star</title>
		<g>
			<path d="M29.728 11.552q0 .384-.48.864l-6.464 6.304 1.536 8.928v.384q0 .352-.192.608t-.544.288q-.32 0-.704-.224l-8.032-4.224-8 4.224q-.384.224-.736.224t-.544-.288-.192-.608q0-.128.032-.384l1.536-8.928-6.496-6.304Q0 11.936 0 11.552q0-.672.992-.832l8.96-1.28 4.032-8.128q.352-.736.864-.736t.896.736l4 8.128 8.96 1.28q1.024.16 1.024.832z"/>
		</g>
		</symbol>

	<symbol id="star-outline" viewBox="0 0 30 32">
		<title>star outline</title>
		<g>
			<path d="M20.32 17.92l5.44-5.312-7.52-1.088-3.392-6.816-3.36 6.816-7.552 1.088 5.472 5.312-1.312 7.52 6.752-3.552L21.6 25.44zm9.408-6.368q0 .384-.48.864l-6.464 6.304 1.536 8.928v.384q0 .896-.736.896-.32 0-.704-.224l-8.032-4.224-8 4.224q-.384.224-.736.224t-.544-.288-.192-.608q0-.128.032-.384l1.536-8.928-6.496-6.304Q0 11.936 0 11.552q0-.672.992-.832l8.96-1.28 4.032-8.128q.352-.736.864-.736t.896.736l4 8.128 8.96 1.28q1.024.16 1.024.832z"/>
		</g>
		</symbol>

	<symbol id="tab-up" viewBox="0 0 59 32">
		<title>tab</title>
		<g>
			<path d="M58.08 24.288L49.856 3.264Q48.512-.032 45.536 0H13.76q-3.04-.032-4.32 3.264l-8.288 20.96Q-1.888 31.968 3.168 32h52.928q4.992-.032 1.984-7.712z"/>
		</g>
		</symbol>

	<symbol id="tab-down" viewBox="0 0 59 32">
		<title>tab bottom</title>
		<g>
			<path d="M1.152 7.712l8.224 21.024c.896 2.208 2.336 3.296 4.32 3.264h31.776c2.016.032 3.456-1.056 4.32-3.264l8.256-20.992C60.096 2.624 59.424.032 56.064 0H3.136c-3.328.032-4 2.592-1.984 7.712z"/>
		</g>
		</symbol>

	<symbol id="volume-mute" viewBox="0 0 32 32">
		<title>volume mute2</title>
		<g>
			<path d="M30 19.348V22h-2.652L24 18.652 20.652 22H18v-2.652L21.348 16 18 12.652V10h2.652L24 13.348 27.348 10H30v2.652L26.652 16 30 19.348z"/>
			<path d="M13 30a1 1 0 0 1-.707-.293L4.586 22H1a1 1 0 0 1-1-1V11a1 1 0 0 1 1-1h3.586l7.707-7.707A1 1 0 0 1 14 3v26a1.002 1.002 0 0 1-1 1z"/>
		</g>
		</symbol>

	<symbol id="volume-medium" viewBox="0 0 32 32">
		<title>volume medium</title>
		<g>
			<path d="M22.485 25.985a1.5 1.5 0 0 1-1.061-2.56c4.094-4.094 4.094-10.755 0-14.849a1.5 1.5 0 1 1 2.121-2.121c2.55 2.55 3.954 5.94 3.954 9.546s-1.404 6.996-3.954 9.546a1.495 1.495 0 0 1-1.061.439zm-5.328-2.828a1.5 1.5 0 0 1-1.061-2.56 6.508 6.508 0 0 0 0-9.192 1.5 1.5 0 1 1 2.121-2.121c3.704 3.704 3.704 9.731 0 13.435a1.495 1.495 0 0 1-1.061.439z"/>
			<path d="M13 30a1 1 0 0 1-.707-.293L4.586 22H1a1 1 0 0 1-1-1V11a1 1 0 0 1 1-1h3.586l7.707-7.707A1 1 0 0 1 14 3v26a1.002 1.002 0 0 1-1 1z"/>
		</g>
		</symbol>

	<symbol id="stopwatch" viewBox="0 0 33 32">
		<title>stopwatch</title>
		<g>
			<path d="M0 7.456L7.872-.416l2.592 2.624-1.28 1.312 1.344 1.376q1.856-1.088 3.968-1.664V0h7.392v3.232q3.168.832 5.696 2.88t3.968 5.056 1.44 6.4q0 3.008-1.152 5.76t-3.168 4.736-4.736 3.168-5.728 1.184-5.792-1.184-4.704-3.168-3.168-4.736-1.184-5.76q0-3.936 1.984-7.392L3.936 8.768 2.624 10.08zm7.104 10.112q0 3.008 1.472 5.568T12.64 27.2t5.568 1.504 5.568-1.504 4.032-4.064 1.504-5.568T27.808 12t-4.032-4.032-5.568-1.504-5.568 1.504T8.576 12t-1.472 5.568zm3.776-4.16q0-.768.512-1.312.544-.544 1.312-.544t1.312.544l4.48 4.48h6.336q.768 0 1.312.544t.512 1.312q0 .8-.544 1.28-.544.576-1.28.576h-7.104q-.096 0-.352-.032l-.16-.064q-.032 0-.096-.032t-.096 0q-.032-.032-.096-.064t-.064-.032l-.16-.096q-.096-.064-.288-.256l-5.024-4.992q-.512-.544-.512-1.312z"/>
		</g>
		</symbol>

	<symbol id="hearts" viewBox="0 0 32 32">
		<title>heart</title>
		<g>
			<path d="M23.6 2c-3.363 0-6.258 2.736-7.599 5.594C14.659 4.736 11.764 2 8.4 2 3.763 2 0 5.764 0 10.401c0 9.433 9.516 11.906 16.001 21.232C22.131 22.365 32 19.533 32 10.401 32 5.764 28.237 2 23.6 2z"/>
		</g>
		</symbol>

	<symbol id="diamonds" viewBox="0 0 32 32">
		<title>diamonds</title>
		<path d="M16 0l-10 16 10 16 10-16z"/>
		</symbol>

	<symbol id="spades" viewBox="0 0 32 32">
		<title>spades</title>
		<g>
			<path d="M25.549 10.88C19.5 6.384 17.416 2.786 16 0c-1.415 2.785-3.5 6.384-9.549 10.88-10.314 7.665-.606 18.365 7.93 12.476-.556 3.654-2.454 6.318-4.381 7.465V32h12.001v-1.179c-1.928-1.147-3.825-3.811-4.382-7.465 8.535 5.889 18.244-4.811 7.93-12.476z"/>
		</g>
		</symbol>

	<symbol id="clubs" viewBox="0 0 32 32">
		<title>clubs</title>
		<g>
			<path d="M24.588 12.274a6.397 6.397 0 0 0-4.683 2.022c-.5.531-1.368 1.16-2.306 1.713.441-1.683 1.834-3.803 2.801-4.733a6.538 6.538 0 0 0 2-4.734c0-3.59-2.859-6.503-6.4-6.541-3.541.038-6.4 2.951-6.4 6.541 0 1.865.761 3.542 2 4.734.967.93 2.36 3.05 2.801 4.733-.939-.553-1.806-1.182-2.306-1.713a6.397 6.397 0 0 0-4.683-2.022c-3.575 0-6.471 2.927-6.471 6.541s2.897 6.542 6.471 6.542c1.845 0 3.503-.792 4.683-2.045.525-.558 1.451-1.254 2.447-1.832-.094 4.615-2.298 8.005-4.541 9.341V32h12v-1.179c-2.244-1.335-4.448-4.726-4.541-9.341.995.578 1.922 1.274 2.447 1.832 1.18 1.253 2.838 2.045 4.683 2.045 3.575 0 6.471-2.928 6.471-6.542s-2.897-6.541-6.471-6.541z"/>
		</g>
		</symbol>

	<symbol id="move" viewBox="0 2 26 28">
		<title>move</title>
		<path d="M28 16l-6 6v-4.75h-6.813l0.063 6.75h4.75l-6 6-6-6h4.75v-6.75h-6.75v4.75l-6-6 6-6v4.75h6.75v-6.75h-4.75l6-6 6 6h-4.75v6.75h6.75v-4.75z"/>
		</symbol>

	<symbol id='cut' viewBox="5 4 40 38">		<!-- cissors -->
		<title>cut</title>
		<path transform='rotate(50 25 25)' d="M38.555,17.794C36.574,17.478 34.584,17.914 33.091,18.991C32.075,19.723 31.352,20.717 31.019,21.82L24.791,20.813C22.566,15.438 19.278,7.482 18.897,6.506C17.967,4.119 14.735,4.192 14.598,4.196L13.669,4.226L19.825,20.009L3.101,17.308L3.267,18.222C3.291,18.357 3.899,21.532 6.428,21.941C7.461,22.107 15.931,23.651 21.654,24.697L23.946,30.576C22.937,31.133 22.118,32.048 21.615,33.195C20.876,34.881 20.868,36.919 21.593,38.789C22.965,42.308 26.53,44.216 29.54,43.043C30.382,42.718 31.105,42.186 31.689,41.464C32.009,41.068 32.311,40.631 32.494,40.131C33.588,37.15 32.644,34.409 31.145,32.25C31.081,32.157 27.339,27.227 26.841,25.76C26.841,25.76 26.821,25.711 26.79,25.637C26.868,25.652 26.921,25.661 26.921,25.661C28.46,25.84 34.066,28.463 34.17,28.507C36.594,29.519 39.474,29.865 42.158,28.17C42.608,27.886 42.972,27.5 43.293,27.103C43.876,26.381 44.244,25.562 44.386,24.67C44.898,21.481 42.283,18.397 38.555,17.794ZM29.91,35.552C30.364,36.719 30.374,38.012 29.937,39.006C29.822,39.267 29.68,39.502 29.517,39.704C29.244,40.042 28.909,40.288 28.528,40.436C26.955,41.05 25.01,39.855 24.198,37.772C23.739,36.589 23.731,35.33 24.173,34.322C24.476,33.635 24.966,33.128 25.583,32.887C27.158,32.275 29.099,33.471 29.91,35.552ZM41.622,24.23C41.558,24.635 41.388,25.012 41.115,25.351C40.951,25.553 40.751,25.741 40.52,25.908C39.641,26.544 38.375,26.806 37.138,26.607C34.933,26.251 33.357,24.604 33.625,22.938C33.731,22.283 34.123,21.698 34.732,21.258C35.624,20.612 36.856,20.356 38.11,20.557C40.316,20.914 41.893,22.562 41.622,24.23Z"/>
		</symbol>

	<symbol id="palette" viewBox="0 0 24 32">
		<title>color palette</title>
		<path d="M12 4q4.938 0 8.469 3.125t3.531 7.563q0 2.75-1.969 4.688t-4.719 1.938h-2.375q-0.813 0-1.406 0.594t-0.594 1.406q0 0.875 0.5 1.375 0.563 0.563 0.563 1.313 0 0.875-0.563 1.438t-1.438 0.563q-5 0-8.5-3.5t-3.5-8.5 3.5-8.5 8.5-3.5zM4.688 16q0.813 0 1.406-0.563t0.594-1.438-0.594-1.438-1.406-0.563-1.406 0.563-0.594 1.438 0.594 1.438 1.406 0.563zM8.688 10.688q0.813 0 1.406-0.594t0.594-1.406-0.594-1.406-1.406-0.594-1.406 0.594-0.594 1.406 0.594 1.406 1.406 0.594zM15.313 10.688q0.813 0 1.406-0.594t0.594-1.406-0.594-1.406-1.406-0.594-1.406 0.594-0.594 1.406 0.594 1.406 1.406 0.594zM19.313 16q0.813 0 1.406-0.563t0.594-1.438-0.594-1.438-1.406-0.563-1.406 0.563-0.594 1.438 0.594 1.438 1.406 0.563z"/>
		</symbol>

	<symbol id="bucket" viewBox="0 0 30 32">
		<title>Paint Bucket</title>
		<path d="M7 4l2-2 17.188 17.25-3.625 0.75-10.188 10-12.375-12 9.5-9.5zM19.313 18l-6.875-6.875-6.875 6.875h13.75zM26.188 19.25q3.813 4.125 3.813 6.188 0 1.563-1.125 2.656t-2.688 1.094-2.656-1.094-1.094-2.656q0-0.938 0.938-2.469t1.875-2.594z"/>
		</symbol>

	<symbol id="undo" viewBox="0 0 32 32">
		<title>undo</title>
		<path d="M16 2c-4.418 0-8.418 1.791-11.313 4.687l-4.686-4.687v12h12l-4.485-4.485c2.172-2.172 5.172-3.515 8.485-3.515 6.627 0 12 5.373 12 12 0 3.584-1.572 6.801-4.063 9l2.646 3c3.322-2.932 5.417-7.221 5.417-12 0-8.837-7.163-16-16-16z"/>
		</symbol>

	<symbol id="redo" viewBox="0 0 32 32">
		<title>redo</title>
		<path d="M0 18c0 4.779 2.095 9.068 5.417 12l2.646-3c-2.491-2.199-4.063-5.416-4.063-9 0-6.627 5.373-12 12-12 3.314 0 6.314 1.343 8.485 3.515l-4.485 4.485h12v-12l-4.687 4.687c-2.895-2.896-6.895-4.687-11.313-4.687-8.837 0-16 7.163-16 16z"/>
		</symbol>
	<symbol id="curved-arrow" viewBox="0 0 32 32">
		<path d="M18 7.762v-7.762l12 12-12 12v-7.932c-13.961-0.328-13.362 9.493-9.808 15.932-8.772-9.482-6.909-24.674 9.808-24.238z"></path>
		</symbol>
	<symbol id="link" viewBox="0 0 26 32">
		<title>link</title>
		<path d="M9.408 23.488q0.448-0.448 1.088-0.448t1.152 0.448q1.024 1.088 0 2.24l-1.344 1.28q-1.792 1.792-4.256 1.792t-4.256-1.792-1.792-4.256 1.792-4.256l4.736-4.736q2.24-2.176 4.608-2.464t4.096 1.376q0.512 0.512 0.512 1.152t-0.512 1.152q-1.152 1.024-2.24 0-1.6-1.536-4.224 1.088l-4.736 4.672q-0.832 0.832-0.832 2.048t0.832 2.016 2.016 0.8 2.016-0.832zM23.808 5.12q1.792 1.792 1.792 4.256t-1.792 4.256l-5.056 5.056q-2.368 2.304-4.8 2.304-1.984 0-3.584-1.6-0.448-0.448-0.448-1.088t0.448-1.12 1.12-0.48 1.12 0.448q1.6 1.536 3.904-0.768l5.056-4.992q0.896-0.896 0.896-2.080t-0.896-1.952q-0.768-0.832-1.792-0.992t-1.92 0.672l-1.6 1.6q-0.512 0.448-1.152 0.448t-1.088-0.448q-1.088-1.088 0-2.24l1.6-1.6q1.728-1.728 4.064-1.632t4.128 1.952z"/>
		</symbol>

	<symbol id="cursor" viewBox="0 0 30 32">
		<title>cursor</title>
		<g>
			<path d="M29.152 26.688l-3.584 3.616-12.48-12.544-5.376 5.376L.576 1.696l21.44 7.136-5.344 5.344z"/>
		</g>
		</symbol>

	<symbol id="chevron-down" viewBox="0 0 32 32">
		<title>chevron down</title>
		<g>
			<path d="M30.048 14.432L16.8 27.648Q16.48 28 16 28t-.8-.352L1.952 14.432Q1.6 14.08 1.6 13.6t.352-.8l2.976-2.944q.32-.352.8-.352t.8.352L16 19.328l9.472-9.472q.352-.352.8-.352t.832.352l2.944 2.944q.352.352.352.8t-.352.832z"/>
		</g>
		</symbol>

	<!-- Visionneuse  -->

	<symbol id="backspace" viewBox="0 0 33 32">
		<title>backspace</title>
		<g>
			<path d="M29.152 3.488q1.728 0 2.944 1.248t1.216 2.912v16.704q0 1.696-1.216 2.944t-2.944 1.216H12.48q-1.6 0-3.296-.896T6.56 25.472l-4.384-6.144Q.288 16.672.192 16.576q-.384-.544 0-1.12l.256-.352q.288-.416.768-1.088t.992-1.344l4.32-6.08q.928-1.28 2.624-2.176t3.328-.928h16.672zm-3.84 16.32l-3.776-3.776 3.776-3.84q.48-.48.48-1.184t-.48-1.184-1.184-.48-1.152.48l-3.808 3.84-3.84-3.84q-.48-.48-1.184-.48t-1.184.48-.48 1.184.48 1.184l3.84 3.84-3.84 3.776q-.48.48-.48 1.184t.48 1.184q.512.512 1.216.512.64 0 1.152-.512l3.84-3.808 3.808 3.808q.512.512 1.184.512.64 0 1.152-.512.48-.48.48-1.184t-.48-1.184z"/>
		</g>
		</symbol>

	<symbol id="level-down" viewBox="0 0 18 32">
		<title>level-down</title>
		<path d="M0.576 4.576h12.576q0.224 0 0.384 0.16t0.192 0.416v15.424h3.424q0.704 0 1.024 0.64t-0.16 1.248l-5.696 6.848q-0.352 0.416-0.896 0.416t-0.864-0.416l-5.728-6.848q-0.448-0.544-0.16-1.248 0.32-0.64 1.056-0.64h3.424v-11.424h-5.728q-0.256 0-0.448-0.192l-2.848-3.456q-0.224-0.224-0.064-0.608 0.16-0.32 0.512-0.32z"/>
		</symbol>

	<symbol id='fract-model-1' viewBox="0 0 31 50" width='100%'>
		<title>fract simple</title>
		<rect x="6" y="0" width="20" height="20" style="fill-rule:nonzero;"/>
		<rect x="6" y="30" width="20" height="20" style="fill-rule:nonzero;"/>
		<path d="M30.9,25L0,25" style="fill-opacity:0;fill-rule:nonzero;stroke:black;stroke-width:1px;"/>
		</symbol>

	<symbol id='fract-model-2' viewBox="0 0 38 88" width='100%'>
		<title>fract comp 1</title>
		<rect x="8.75" y="0" width="20" height="20" style="fill-rule:nonzero;"/>
		<rect x="8.75" y="30" width="20" height="20" style="fill-rule:nonzero;"/>
		<path d="M34.2,25L3.3,25" style="fill-opacity:0;fill-rule:nonzero;stroke:black;stroke-width:2px;"/>
		<rect x="5" y="60" width="27.5" height="27.5" style="fill-rule:nonzero;"/>
		<path d="M37.5,55L0,55" style="fill-opacity:0;fill-rule:nonzero;stroke:black;stroke-width:2px;"/>
		</symbol>

	<symbol id='fract-model-3' viewBox="0 0 63 88" width='100%'>
		<title>fract comp 2</title>
		<rect x="37" y="0" width="20" height="20" style="fill-rule:nonzero;"/>
		<rect x="37" y="30" width="20" height="20" style="fill-rule:nonzero;"/>
		<path d="M62.45,25L31.55,25" style="fill-opacity:0;fill-rule:nonzero;stroke:black;stroke-width:2px;"/>
		<rect x="17.5" y="60" width="27.5" height="27.5" style="fill-rule:nonzero;"/>
		<path d="M62.5,54.79L0,55" style="fill-opacity:0;fill-rule:nonzero;stroke:black;stroke-width:2px;"/>
		<rect x="0.5" y="11.25" width="27.5" height="27.5" style="fill-rule:nonzero;"/>
		</symbol>

	<symbol id="download" viewBox="0 0 30 32">
		<title>download</title>
		<path d="M0 24.512v-2.336q0-1.056 0.768-1.792t1.824-0.768 1.792 0.768 0.768 1.792v2.336q0 0.544 0.384 0.928t0.96 0.416h16.992q0.576 0 0.96-0.416t0.384-0.928v-2.336q0-1.056 0.768-1.792t1.792-0.768 1.824 0.768 0.768 1.792v2.336q0 2.688-1.888 4.576t-4.608 1.92h-16.992q-2.688 0-4.608-1.92t-1.888-4.576zM4.96 13.024q0-1.056 0.768-1.824 0.736-0.736 1.792-0.736t1.824 0.736l3.36 3.392v-11.008q0-1.056 0.768-1.824t1.792-0.736 1.824 0.736 0.768 1.824v11.008l3.52-3.52q0.768-0.768 1.824-0.768t1.792 0.768q0.768 0.736 0.768 1.792t-0.768 1.824l-7.904 7.904q-0.768 0.8-1.824 0.8-1.024 0-1.792-0.8l-7.744-7.744q-0.768-0.768-0.768-1.824z"/>
		</symbol>

	<symbol id="plus" viewBox="-2 -2 36 36">
		<title>plus</title>
		<g>
			<path d="M13,1 L19,1 19,13 31,13 31,19 19,19 19,31 13,31 13,19 1,19 1,13 13,13 z"/>
		</g>
		</symbol>

	<symbol id="cross" viewBox="-2 -2 36 36">
		<title>cross</title>
		<g transform="rotate(45,16,16)">
			<path d="M13,1 L19,1 19,13 31,13 31,19 19,19 19,31 13,31 13,19 1,19 1,13 13,13 z"/>
		</g>
		</symbol>

	<symbol id="envelope" viewBox="0 0 32 32">
		<path d="M25.923 21.077l-0.808 0.808-5.99-5.135-2.625 2.25-2.625-2.25-5.99 5.135-0.808-0.808 5.923-5.077-5.923-5.077 0.808-0.808 8.615 7.385 8.615-7.385 0.808 0.808-5.923 5.077 5.923 5.077zM6.004 8c-1.107 0-2.004 0.895-2.004 1.994v12.012c0 1.101 0.89 1.994 2.004 1.994h20.993c1.107 0 2.004-0.895 2.004-1.994v-12.012c0-1.101-0.89-1.994-2.004-1.994h-20.993z"/>
		</symbol>

	<symbol id="padlock" viewBox="0 0 32 32">
		<path d="M29 32h-26c-0.552 0-1-0.447-1-1v-16c0-0.553 0.448-1 1-1h3v-4c0-5.523 4.477-10 10-10s10 4.477 10 10v4h3c0.553 0 1 0.447 1 1v16c0 0.553-0.447 1-1 1zM22 9.5c0-3.038-2.687-5.5-6-5.5s-6 2.462-6 5.5v4.5h12v-4.5z"/>
		</symbol>

	<symbol id="exit" viewBox="0 0 32 32">
		<path d="M24 20v-4h-10v-4h10v-4l6 6zM22 18v8h-10v6l-12-6v-26h22v10h-2v-8h-16l8 4v18h8v-6z"/>
		</symbol>

	<symbol id="random" viewBox="0 0 32 32">
		<title>random dice</title>
		<g stroke="none">
			<path d="M16 2.784q-.64 0-1.088.256L5.376 8.576q-.448.256-.448.608t.448.64l9.536 5.504q.448.256 1.088.256t1.056-.256l9.536-5.504q.448-.256.448-.64t-.448-.608L17.056 3.04q-.448-.256-1.056-.256zm-.064 3.328q.832 0 1.504.384.48.288.608.576t.032.896l-.096.352q-.096.416-.032.544t.256.288l.192.128-2.08 1.152-.224-.128q-.384-.256-.48-.48t.032-.896l.096-.352q.096-.32.032-.512t-.288-.352q-.384-.16-.768-.128t-.992.32q-.384.224-.8.64t-.704.928l-1.472-.832q.48-.544.96-.864.32-.256 1.024-.704 1.408-.768 2.624-.928.192-.032.576-.032zm3.168 3.552l1.664.928-2.048 1.184-1.696-.96zM4.736 10.848q-.256 0-.416.192t-.192.576v9.856q0 .512.32 1.056t.736.8l9.184 5.312q.448.256.768.096t.32-.704v-9.856q0-.512-.32-1.056t-.768-.8l-9.184-5.312q-.128-.096-.448-.16zm22.528 0q-.32.064-.448.16l-9.184 5.312q-.448.256-.768.8t-.32 1.056v9.856q0 .512.32.704t.768-.096l9.184-5.312q.448-.224.768-.768t.288-1.088v-9.856q0-.352-.16-.576t-.448-.192zm-20.096 4q.736.16 1.152.32.64.256.96.448 1.28.736 1.92 1.6t.608 1.984q0 .48-.192.832-.16.256-.672.512l-.32.096q-.352.16-.448.288t-.096.384v.256L8.224 20.48v-.256q0-.448.192-.704t.704-.448l.32-.128q.256-.096.416-.288.128-.128.128-.416 0-.384-.192-.704t-.736-.608q-.416-.256-.832-.352t-1.056-.032v-1.696zm16.864.544q.192 0 .256.032.64.128.64 1.184 0 .512-.192 1.056-.224.608-.672 1.28l-.32.512q-.384.608-.448.8t-.096.512v.224l-1.856 1.056v-.256q0-.448.16-.896t.736-1.28l.32-.48q.128-.192.416-.768.128-.288.128-.576 0-.416-.224-.48t-.672.192-.896.704-1.024 1.12v-1.696q.8-.736 1.152-.992.48-.384.96-.672 1.024-.576 1.632-.576zM8.224 21.28l1.856 1.056v1.952L8.224 23.2v-1.92zm14.976.512v1.92l-1.856 1.056v-1.92z"/>
		</g>
		</symbol>

	<symbol id="thunder" viewBox="0 0 32 32">
		<g>
			<path d="M23,6c-0.753,0-1.501,0.148-2.207,0.432C19.424,4.319,17.052,3,14.5,3  c-3.235,0-6.043,2.034-7.079,5.033C4.936,8.321,3,10.439,3,13c0,2.757,2.243,5,5,5h3l-1,2l3,3l-1,7l7-7l-2-3l2-2h4  c3.309,0,6-2.691,6-6S26.309,6,23,6z M16.426,22.745l-1.598,1.598l0.293-2.05l-2.688-2.688L13.236,18h2.935l-1.745,1.745  L16.426,22.745z M23,16H8c-1.654,0-3-1.346-3-3s1.346-3,2.956-3.001l1.006,0.052L9.15,9.245C9.734,6.746,11.934,5,14.5,5  c2.123,0,4.078,1.248,4.979,3.179l0.476,1.018l0.956-0.59C21.563,8.204,22.266,8,23,8c2.206,0,4,1.794,4,4S25.206,16,23,16z" />
		</g>
		</symbol>
	<symbol id="wind" viewBox="0 0 512 512">
		<g fill='none' stroke-miterlimit="10" stroke-width="20" stroke='currentColor'>
			<line x1="51" x2="388" y1="256" y2="256"/>
			<line x1="85" x2="241" y1="222" y2="222"/>
			<path d="M198.177,201.276"/>
			<path d="M241.316,222.316"/>
			<line x1="119" x2="308" y1="290" y2="290"/>
			<path d="M264.41,322.358   c-1.327,4.313-2.042,8.894-2.042,13.642c0,25.579,20.736,46.316,46.316,46.316S355,361.579,355,336s-21.078-46-46.658-46"/>
			<path d="M265.546,310.724"/>
			<path d="M327.089,207.654"/>
			<path d="M326.089,207.654   c-1.142-4.751-1.746-9.711-1.746-14.812c0-34.881,28.277-63.158,63.158-63.158s63.158,28.277,63.158,63.158S422.381,256,387.5,256"/>
			<path d="M199.909,187.488"/>
			<path d="M199.909,187.488   c-0.373-2.23-0.567-4.521-0.567-6.857c0-22.802,18.484-41.286,41.286-41.286s41.286,18.484,41.286,41.286   s-18.484,41.286-41.286,41.286"/>
		</g>
		</symbol>
	<symbol id='arrow-equiv' viewBox="0 0 36 16">
			<path d="M27.887,1.413c-0,-0.183 0.103,-0.275 0.31,-0.275c0.111,-0.01 0.223,0.002 0.33,0.037c0.074,0.079 0.133,0.177 0.175,0.288c0.986,2.589 2.681,4.62 4.759,5.7c0.376,0.216 0.766,0.392 1.165,0.524c0.22,0.084 0.33,0.193 0.33,0.326c0,0.133 -0.11,0.241 -0.33,0.325c-1.289,0.413 -2.489,1.2 -3.506,2.3c-1.006,1.082 -1.829,2.418 -2.418,3.925c-0.025,0.102 -0.072,0.193 -0.136,0.262c-0.095,0.034 -0.193,0.047 -0.291,0.037c-0.26,0 -0.389,-0.066 -0.389,-0.199c0.016,-0.139 0.049,-0.274 0.097,-0.4c0.439,-1.123 1.002,-2.159 1.671,-3.075l0.194,-0.25l-23.716,-0l0.195,0.25c0.669,0.916 1.231,1.952 1.67,3.075c0.048,0.126 0.081,0.261 0.097,0.4c0,0.133 -0.129,0.199 -0.388,0.199c-0.095,0.008 -0.191,-0.004 -0.283,-0.037c-0.045,-0.025 -0.094,-0.112 -0.145,-0.262c-0.897,-2.355 -2.381,-4.257 -4.215,-5.4c-0.546,-0.352 -1.119,-0.628 -1.709,-0.826c-0.09,-0.027 -0.175,-0.073 -0.252,-0.137c-0.077,-0.104 -0.077,-0.271 -0,-0.375c0.077,-0.064 0.162,-0.111 0.252,-0.138c1.288,-0.411 2.487,-1.193 3.506,-2.287c1.01,-1.081 1.834,-2.422 2.418,-3.937c0.103,-0.131 0.221,-0.241 0.35,-0.325l0.116,-0c0.234,0.016 0.35,0.1 0.35,0.25c-0.019,0.13 -0.052,0.256 -0.097,0.375c-0.439,1.123 -1.002,2.159 -1.67,3.075l-0.195,0.25l23.717,-0l-0.195,-0.25c-0.669,-0.916 -1.232,-1.952 -1.67,-3.075c-0.05,-0.107 -0.083,-0.226 -0.097,-0.35Zm-22.609,8.525l25.425,-0l0.194,-0.2c0.719,-0.655 1.479,-1.232 2.272,-1.725c-0.059,-0.055 -0.124,-0.097 -0.194,-0.125c-0.741,-0.422 -1.439,-0.959 -2.078,-1.6l-0.194,-0.2l-12.684,0l-0.019,-0.025l-0.039,-0l-6.312,0.025l-6.371,0l-0.194,0.2c-0.72,0.654 -1.48,1.231 -2.273,1.725c0.059,0.055 0.125,0.097 0.194,0.125c0.741,0.422 1.439,0.96 2.079,1.6l0.194,0.2Z"/>
		</symbol>

		<symbol id="arrow-exchange" viewBox="0 0 32 32">
			<path d="M31.998 24h-24.006v4l-7.992-6 7.992-6v4h24.006zM0 12h23.998v4l8-6-8-6v4h-23.998z"/>
			</symbol>

		<symbol id="arrow-up" viewBox="0 0 32 32">
			<path d="M16 1l-15 15h9v16h12v-16h9z"></path>
			</symbol>

		<symbol id="arrow-down" viewBox="0 0 32 32">
			<path d="M16 31l15-15h-9v-16h-12v16h-9z"></path>
			</symbol>

		<symbol id="arrow-up2" viewBox="0 0 32 32">
			<path d="M20 32v-16l6 6 6-6-16-16-16 16 6 6 6-6v16z"></path>
			</symbol>
		<symbol id="arrow-down2" viewBox="0 0 32 32">
			<path d="M12 0v16l-6-6-6 6 16 16 16-16-6-6-6 6v-16z"></path>
			</symbol>

		<symbol id="circle-with-minus" viewBox="0 0 40 40">
			<path d="M20 3.2c-9.278 0-16.8 7.522-16.8 16.8s7.522 16.8 16.8 16.8 16.8-7.522 16.8-16.8c0-9.278-7.522-16.8-16.8-16.8zM30 22h-20v-4h20v4z"/>
			</symbol>
		<symbol id="circle-with-plus" viewBox="0 0 40 40">
			<path d="M20 3.2c-9.278 0-16.8 7.522-16.8 16.8s7.522 16.8 16.8 16.8 16.8-7.522 16.8-16.8c0-9.278-7.522-16.8-16.8-16.8zM30 22h-8v8h-4v-8h-8v-4h8v-8h4v8h8v4z"/>
			</symbol>
		<symbol id="circle-with-cross" viewBox="0 0 40 40">
			<path d="M20 3.2c-9.278 0-16.8 7.522-16.8 16.8s7.522 16.8 16.8 16.8 16.8-7.522 16.8-16.8c0-9.278-7.522-16.8-16.8-16.8zM29.578 26.122l-3.458 3.458-6.12-6.122-6.122 6.12-3.458-3.458 6.124-6.12-6.122-6.122 3.458-3.456 6.12 6.12 6.122-6.122 3.458 3.458-6.124 6.122 6.122 6.122z"/>
			</symbol>

		<symbol id="fanion" overflow="visible">
			<path d="M0,0 Q50,-18 100,0 L94,50 L100,100 Q50,82 0,100 L6,50 z"/>
			</symbol>

		<symbol id="thumbs-down" viewBox="0 0 25 28">
			<title>thumbs-down</title>
			<path d="M4 9c0 0.547-0.453 1-1 1-0.562 0-1-0.453-1-1 0-0.562 0.438-1 1-1 0.547 0 1 0.438 1 1zM6.5 17v-10c0-0.547-0.453-1-1-1h-4.5c-0.547 0-1 0.453-1 1v10c0 0.547 0.453 1 1 1h4.5c0.547 0 1-0.453 1-1zM24.141 14.672c0.531 0.594 0.859 1.5 0.859 2.328-0.016 1.625-1.375 3-3 3h-4.328c0.125 0.5 0.281 0.656 0.453 1 0.406 0.812 0.875 1.719 0.875 3 0 1.203 0 4-3.5 4-0.266 0-0.516-0.109-0.703-0.297-0.672-0.656-0.859-1.625-1.031-2.547-0.187-0.906-0.359-1.844-0.969-2.453-0.484-0.484-1.016-1.156-1.578-1.875-0.688-0.906-2.188-2.766-2.766-2.812-0.516-0.047-0.953-0.484-0.953-1v-10.016c0-0.547 0.469-0.984 1-1 0.547-0.016 1.484-0.344 2.469-0.688 1.687-0.578 3.797-1.313 6.031-1.313h2.016c1.375 0.016 2.406 0.422 3.078 1.219 0.594 0.703 0.859 1.656 0.766 2.828 0.391 0.375 0.688 0.891 0.844 1.469 0.172 0.625 0.172 1.25 0 1.828 0.469 0.625 0.703 1.359 0.672 2.141 0 0.219-0.063 0.688-0.234 1.188z"></path>
			</symbol>

	<symbol id="gear" viewBox="0 0 32 32">
		<title>gear - settings</title>
		<g stroke="none">
			<path d="M25.888 17.312c.064-.416.064-.864.064-1.312s-.064-.832-.064-1.312l2.784-2.144c.256-.192.32-.512.128-.832l-2.656-4.48c-.128-.256-.544-.384-.8-.256l-3.328 1.28a9.894 9.894 0 0 0-2.272-1.28l-.448-3.456a.698.698 0 0 0-.672-.512h-5.312a.73.73 0 0 0-.672.512l-.512 3.456c-.8.32-1.536.768-2.272 1.28l-3.328-1.28c-.32-.128-.672 0-.8.256l-2.656 4.48c-.128.256-.064.64.128.832l2.848 2.144c0 .48-.064.864-.064 1.312s.064.832.064 1.312l-2.784 2.144c-.256.192-.32.512-.128.832l2.656 4.48c.128.256.544.384.8.256l3.328-1.28c.672.512 1.472.96 2.272 1.28l.512 3.456c.064.32.352.512.672.512h5.312a.698.698 0 0 0 .672-.512l.544-3.456c.8-.32 1.504-.768 2.24-1.28l3.328 1.28c.32.128.672 0 .8-.256l2.656-4.48c.128-.256.064-.64-.128-.832l-2.912-2.144zm-9.92 3.232c-2.592 0-4.64-2.016-4.64-4.544s2.048-4.544 4.64-4.544 4.64 2.016 4.64 4.544-2.048 4.544-4.64 4.544z"/>
		</g>
		</symbol>

	<symbol id="flip-cards-inv" viewBox="0 0 38 38">
		<title>Flip cards</title>
    <g transform="matrix(1,0,0,1,2,0)">
        <g transform="matrix(-1,-1.22465e-16,-1.22465e-16,1,39.7,2.38013)">
            <path d="M11.6,12.9C6,15.5 7.3,16.8 10.4,17.5C10.8,17.6 11.2,17.7 11.6,17.7C12.5,17.8 13.5,17.9 14.4,18C15,18.1 15.6,18.1 16.2,18.1C18.2,18.2 19.7,18.2 19.7,18.2L19.7,15.1C19.7,14.6 20.3,14.7 20.5,14.9L26.3,18.9L28.6,20.5C28.8,20.7 28.8,21 28.6,21.3L26.3,22.9L23.5,24.9L20.6,26.9C20.5,27 20.3,27.1 20.2,27.1C20.1,27.1 19.8,27.1 19.8,26.8L19.8,24.3C18.3,24 16.9,23.8 15.6,23.5C15.2,23.4 14.9,23.3 14.5,23.3C13.5,23.1 12.5,22.8 11.7,22.6C11,22.4 10.4,22.2 9.8,22C-4.6,16.9 11.7,10.9 11.7,10.9" style="fill:rgb(1,1,1);"/>
        </g>
        <g transform="matrix(-1,-1.22465e-16,-1.22465e-16,1,38.842,3.28013)">
            <path d="M11.7,10.9L11.7,7.9C11.7,5.8 13.4,4.1 15.5,4.1L28.5,4.1C30.5,4.1 32.2,5.8 32.2,7.9L32.2,28.1C32.2,30.2 30.5,31.9 28.4,31.9L15.4,31.9C13.3,31.9 11.6,30.2 11.6,28.1L11.6,24.8L14.4,25.4L14.4,28C14.4,28.6 14.9,29.1 15.5,29.1L28.3,29.1C28.9,29.1 29.4,28.6 29.4,28L29.4,8.1C29.4,7.5 28.9,7 28.3,7L15.5,7C14.9,7 14.4,7.5 14.4,8.1L14.4,15.6L11.6,15.4L11.6,12.9" style="fill:rgb(1,1,1);"/>
        </g>
        <g transform="matrix(-1,-1.22465e-16,1.22465e-16,-1,34.4132,34.7242)">
            <path d="M28.5,4.1C30.5,4.1 32.2,5.8 32.2,7.9L32.2,28.1C32.2,30.2 30.5,31.9 28.4,31.9L15.4,31.9C13.595,31.9 12.062,30.537 11.673,28.851L14.811,28.853C15.001,29.007 15.241,29.1 15.5,29.1L28.3,29.1C28.9,29.1 29.4,28.6 29.4,28L29.4,8.1C29.4,7.5 29.076,7.015 28.476,7.015" style="fill:rgb(1,1,1);"/>
        </g>
    </g>
		</symbol>

		<symbol id='ext-link' viewBox="0 0 24 24">
			<g stroke-width="2.1" stroke="currentColor" fill="none" stroke-linecap="round" stroke-linejoin="round">
				<polyline points="17 13.5 17 19.5 5 19.5 5 7.5 11 7.5"></polyline>
				<path d="M14,4.5 L20,4.5 L20,10.5 M20,4.5 L11,13.5"></path>
			</g>
		</symbol>


</svg>
